<?xml version="1.0" encoding="UTF-8" standalone="no"?>
<svg width="256px" height="256px" viewBox="0 0 256 256" version="1.1" xmlns="http://www.w3.org/2000/svg" xmlns:xlink="http://www.w3.org/1999/xlink" xmlns:sketch="http://www.bohemiancoding.com/sketch/ns">
    <!-- Generator: Sketch 3.3.3 (12081) - http://www.bohemiancoding.com/sketch -->
    <title>favicon</title>
    <desc>Created with Sketch.</desc>
    <defs></defs>
    <g id="Page-1" stroke="none" stroke-width="1" fill="none" fill-rule="evenodd" sketch:type="MSPage">
        <g id="favicon" sketch:type="MSArtboardGroup">
            <g sketch:type="MSLayerGroup">
                <circle id="Oval-1" fill="#D85658" sketch:type="MSShapeGroup" cx="128" cy="128" r="128"></circle>
                <path d="M242.502606,185.27406 C221.484432,227.211915 178.104125,256 128,256 C124.618896,256 121.268411,255.868906 117.953351,255.611524 L74,190 L98,177.5 L76,141 L150,147 C153.853942,136.762967 92,141 92,141 L79,120 L94,118 L83,98 L98,95 L87,76 L182,62 C182,62 203.451938,105.708325 214.177908,127.562487 C221.73522,142.96051 232.875371,165.658569 242.502606,185.27406 Z" id="Oval-1-Copy" fill-opacity="0.25" fill="#000000" sketch:type="MSShapeGroup"></path>
                <path d="M78,76.0537883 C78,58.3813708 92.3275619,44.0550459 110.001603,44.0550459 L145.998397,44.0550459 C163.672394,44.0550459 178,58.387375 178,76.0537883 L178,179.946212 C178,197.618629 163.672438,211.944954 145.998397,211.944954 L110.001603,211.944954 C92.3276059,211.944954 78,197.612625 78,179.946212 L78,76.0537883 Z M78,128.458716 L140.385321,128.458716 L140.385321,139.46789 L78,139.46789 L78,128.458716 Z M78,106.440367 L140.385321,106.440367 L140.385321,117.449541 L78,117.449541 L78,106.440367 Z M78,84.4220183 L140.385321,84.4220183 L140.385321,95.4311927 L78,95.4311927 L78,84.4220183 Z M78,150.477064 L140.385321,150.477064 L140.385321,161.486239 L78,161.486239 L78,150.477064 Z" id="Rectangle-7" fill="#FFFFFF" sketch:type="MSShapeGroup" transform="translate(128.000000, 128.000000) rotate(10.000000) translate(-128.000000, -128.000000) "></path>
                <path d="M119,255.688503 L119,215.377049 L104,214 L104,253.753668 C108.906617,254.68442 113.912369,255.335116 119,255.688503 Z" id="Rectangle-6" stroke="#FFFFFF" stroke-width="0.2" fill="#FFFFFF" sketch:type="MSShapeGroup"></path>
            </g>
        </g>
    </g>
</svg>
